<svg xmlns="http://www.w3.org/2000/svg" viewBox="0 0 800 500"><defs><linearGradient id="w" x2="1" y2="1"><stop stop-color="#4e2f1c"/><stop offset=".5" stop-color="#a46a3c"/><stop offset="1" stop-color="#4e2f1c"/></linearGradient></defs><rect width="800" height="500" fill="url(#w)"/><rect x="105" y="38" width="590" height="424" rx="25" fill="#2f2118" stroke="#d9a45b" stroke-width="10"/><g fill="#c9824b"><path d="M135 58H330L270 442H135Z"/><path d="M355 58H445L405 442H315Z"/><path d="M470 58H665V442H530Z"/></g><g fill="#e3b27a"><path d="M330 58H360L330 442H300Z"/><path d="M440 58H470L500 442H470Z"/><path d="M135 58H165L220 442H190Z"/><path d="M635 58H665L610 442H580Z"/></g><g fill="#eee" stroke="#777" stroke-width="4"><circle cx="180" cy="390" r="29"/><circle cx="230" cy="420" r="29"/><circle cx="575" cy="85" r="29"/><circle cx="620" cy="115" r="29"/></g><g fill="#1c232f" stroke="#080a0d" stroke-width="4"><circle cx="610" cy="390" r="29"/><circle cx="560" cy="420" r="29"/><circle cx="185" cy="85" r="29"/><circle cx="235" cy="115" r="29"/></g><text x="400" y="30" text-anchor="middle" fill="white" font-family="sans-serif" font-size="26" font-weight="800">SIMORGH BACKGAMMON</text></svg>